<svg xmlns="http://www.w3.org/2000/svg" width="33.97" height="44" viewBox="0 0 33.97 44"><defs><style>.cls-1{opacity:0.1;}.cls-2{fill:#4dba87;}</style></defs><g id="Layer_2" data-name="Layer 2"><g id="Layer_1-2" data-name="Layer 1"><path id="Union_2" data-name="Union 2" class="cls-1" d="M17.38,0A16.6,16.6,0,0,0,.78,16.6h0a6.61,6.61,0,0,0,.08,1.6,16.58,16.58,0,0,0,2.37,7.09C5.44,29.8,9.59,36,17.38,44c0,0,10.25-9.78,14.64-19.59A16.59,16.59,0,0,0,34,17.19c0-.2,0-.4,0-.59A16.6,16.6,0,0,0,17.38,0Zm0,22.77a6.18,6.18,0,1,1,6.17-6.17h0A6.17,6.17,0,0,1,17.38,22.77Z"/><path id="Union_2-2" data-name="Union 2" class="cls-2" d="M16.61,0A16.6,16.6,0,0,0,0,16.6H0a7.15,7.15,0,0,0,.07,1.6,16.59,16.59,0,0,0,2.38,7.09C4.68,29.8,8.82,36,16.61,44c0,0,10.26-9.78,14.65-19.59a16.44,16.44,0,0,0,1.93-7.22c0-.2,0-.4,0-.59A16.6,16.6,0,0,0,16.61,0Zm0,22.77a6.18,6.18,0,1,1,6.18-6.17h0A6.18,6.18,0,0,1,16.61,22.77Z"/><path class="cls-1" d="M16.61,0h0V10.42h0a6.18,6.18,0,1,1,0,12.35h0V44l0,0s10.26-9.78,14.65-19.59a16.44,16.44,0,0,0,1.93-7.22c0-.2,0-.4,0-.59A16.6,16.6,0,0,0,16.61,0Z"/></g></g></svg>